<?xml version="1.0" standalone="no"?>
<!DOCTYPE svg PUBLIC "-//W3C//DTD SVG 20010904//EN"
 "http://www.w3.org/TR/2001/REC-SVG-20010904/DTD/svg10.dtd">
<svg version="1.0" xmlns="http://www.w3.org/2000/svg"
 width="122.880000pt" height="122.880000pt" viewBox="0 0 122.880000 122.880000"
 preserveAspectRatio="xMidYMid meet">
<metadata>
Created by potrace 1.16, written by Peter Selinger 2001-2019
</metadata>
<g transform="translate(0.000000,122.880000) scale(0.026713,-0.026713)"
fill="#ffffff" stroke="none">
<path d="M1755 4533 c-60 -24 -103 -60 -122 -101 -17 -38 -22 -164 -15 -427 1
-60 2 -123 2 -140 0 -16 4 -31 10 -33 6 -2 7 -8 4 -14 -11 -17 -44 24 -45 56
0 26 -2 28 -8 11 -12 -28 31 -101 51 -89 4 3 8 -4 8 -15 0 -12 5 -21 10 -21 6
0 10 -9 10 -19 0 -10 7 -21 15 -25 8 -3 15 -11 15 -18 0 -9 -3 -8 -10 2 -5 8
-10 11 -10 5 0 -5 -9 4 -20 20 -29 43 -25 19 6 -32 20 -34 30 -43 45 -38 13 4
19 2 19 -9 0 -9 -4 -16 -10 -16 -5 0 -2 -13 8 -29 9 -16 22 -27 29 -24 7 3 13
-1 13 -8 0 -7 3 -10 6 -6 4 3 -4 18 -16 34 -12 15 -17 29 -12 31 10 3 1 37
-48 187 -40 122 -64 324 -58 483 l5 124 49 43 c51 45 125 75 187 75 34 0 37
-3 63 -57 32 -68 65 -168 89 -273 50 -219 134 -498 193 -640 35 -85 70 -162
78 -170 7 -8 27 -47 45 -85 41 -88 79 -146 90 -139 5 3 8 2 7 -3 -4 -15 34
-103 43 -97 5 3 6 -3 2 -12 -5 -13 -3 -15 7 -9 9 5 11 4 6 -3 -10 -16 10 -49
33 -57 11 -3 18 -12 15 -19 -3 -7 7 -29 21 -50 14 -20 20 -34 13 -30 -7 4 -1
-5 15 -21 15 -15 27 -36 27 -46 0 -9 10 -39 21 -66 12 -26 21 -61 22 -78 0
-16 2 -22 4 -12 3 11 11 16 21 13 9 -3 50 -12 90 -21 89 -18 234 -74 226 -87
-3 -5 0 -8 7 -7 24 4 48 -12 42 -27 -3 -8 1 -14 10 -14 17 0 30 -27 20 -42 -3
-6 -1 -8 5 -5 5 4 29 -14 52 -40 22 -26 38 -38 34 -28 -6 16 -4 15 14 -3 29
-29 28 -36 -5 -27 -16 4 -33 8 -40 9 -7 1 -29 18 -50 37 -21 19 -42 37 -48 39
-14 6 -32 43 -27 58 2 7 9 9 15 5 7 -4 6 1 -2 10 -7 9 -19 17 -25 17 -6 0 -4
-5 4 -10 10 -6 11 -10 2 -10 -6 0 -11 -6 -10 -12 2 -7 -3 -12 -9 -10 -18 3
-16 -5 8 -39 11 -16 27 -29 34 -29 8 0 19 -9 25 -20 6 -11 18 -20 26 -20 8 0
12 -4 9 -10 -3 -6 -2 -10 4 -10 5 0 16 -6 23 -12 22 -21 71 -54 91 -61 9 -3
17 -11 17 -17 0 -7 -9 -5 -22 4 -29 20 -42 20 -34 0 3 -8 2 -12 -4 -9 -6 3
-10 1 -10 -5 0 -6 -8 -9 -17 -6 -10 3 -25 1 -33 -4 -11 -7 -6 -10 20 -10 26 0
31 -3 20 -10 -11 -7 -12 -10 -2 -10 9 0 11 -7 6 -22 -6 -21 -5 -22 12 -8 12 9
15 9 7 1 -6 -7 -9 -20 -6 -28 5 -13 3 -13 -18 -1 -13 7 -26 16 -29 19 -6 7
-42 23 -55 24 -5 0 -16 4 -22 8 -7 5 -13 5 -13 1 0 -3 -6 -2 -12 3 -7 6 -25
13 -40 17 -20 4 -32 17 -43 42 -18 44 -18 47 -2 38 10 -6 10 -4 0 7 -15 16
-17 33 -3 24 6 -4 8 6 6 24 -2 20 1 28 9 24 7 -2 16 0 20 6 3 6 1 11 -5 11 -6
0 -8 5 -5 10 4 6 1 17 -5 25 -10 12 -10 15 0 15 8 0 10 3 7 6 -4 4 -13 1 -22
-6 -10 -8 -15 -9 -15 -2 0 7 -7 9 -17 5 -13 -5 -15 -2 -11 15 4 12 2 19 -3 16
-5 -3 -13 5 -18 18 -6 13 -10 16 -11 8 0 -11 -2 -12 -8 -3 -4 7 -25 14 -47 16
-24 3 -39 10 -37 17 1 7 -3 8 -9 4 -9 -5 -10 -2 -6 12 7 19 7 19 -8 0 -13 -17
-13 -21 3 -33 16 -12 16 -13 -1 -7 -13 5 -17 1 -15 -17 2 -13 10 -30 18 -37
13 -12 12 -13 -7 -9 -13 3 -24 -1 -27 -9 -3 -8 -2 -14 3 -14 11 0 11 -49 0
-56 -5 -3 -7 -10 -4 -15 4 -5 1 -9 -5 -9 -6 0 -9 -4 -6 -8 3 -5 -4 -19 -15
-30 -24 -27 -30 -28 -23 -4 5 15 4 16 -8 1 -7 -9 -26 -16 -41 -16 -29 0 -36
14 -11 24 8 3 13 12 10 19 -3 8 -2 14 2 14 11 0 47 109 39 117 -4 3 -3 11 2
17 13 15 23 86 13 86 -8 0 -10 -6 -14 -49 -1 -11 -6 -17 -10 -15 -4 3 -8 -2
-8 -10 0 -9 -11 -41 -25 -72 -14 -31 -22 -61 -18 -68 3 -6 2 -8 -2 -4 -5 5
-21 -15 -37 -42 -16 -28 -47 -68 -68 -89 -22 -21 -40 -44 -40 -50 0 -6 -31
-42 -69 -80 -79 -78 -120 -94 -246 -95 -59 -1 -97 8 -245 56 -406 132 -439
140 -716 164 l-60 5 -37 72 c-46 90 -50 150 -12 195 14 17 40 34 58 37 54 11
277 87 277 94 0 4 -38 45 -84 91 -98 100 -186 225 -228 323 l-30 70 17 89 c16
79 22 93 54 124 48 45 76 44 153 -9 35 -24 71 -46 81 -50 10 -4 48 -28 85 -54
l67 -48 -39 48 c-21 26 -42 47 -46 47 -4 0 -11 11 -14 24 -3 14 -21 45 -40 69
-65 85 -114 195 -136 305 -26 132 -25 150 8 247 34 98 66 161 89 174 10 6 12
11 6 11 -17 0 -48 -32 -68 -70 -30 -57 -65 -184 -65 -232 0 -44 4 -73 31 -208
11 -53 49 -128 123 -240 51 -77 43 -78 -49 -5 -32 25 -48 30 -104 33 -92 4
-119 -22 -147 -137 -28 -119 -6 -210 82 -334 19 -26 34 -51 34 -55 0 -4 36
-47 80 -95 44 -48 80 -93 80 -100 0 -14 -26 -26 -150 -71 -158 -58 -175 -75
-175 -171 0 -70 39 -162 80 -189 14 -9 53 -19 87 -22 86 -9 167 -30 190 -50
14 -14 18 -32 18 -89 0 -50 4 -76 14 -84 19 -16 186 -28 186 -13 0 6 2 16 5
24 7 18 -31 41 -80 47 -37 6 -40 9 -46 44 -3 22 -2 40 4 44 26 16 124 1 185
-28 34 -17 62 -33 62 -35 0 -3 -14 -10 -30 -16 -25 -8 -28 -13 -19 -24 6 -8
18 -14 25 -14 16 0 19 -16 4 -25 -5 -3 -10 -15 -10 -25 0 -40 93 -63 156 -40
21 9 31 7 46 -7 16 -15 24 -15 51 -5 28 11 34 10 45 -5 25 -35 12 -159 -27
-248 -12 -26 -37 -155 -55 -281 -10 -66 -25 -124 -45 -166 -16 -36 -34 -90
-40 -121 -6 -31 -18 -71 -27 -88 -9 -17 -33 -81 -55 -142 -21 -60 -48 -124
-58 -141 -10 -17 -24 -55 -30 -84 -13 -64 -24 -85 -105 -210 -35 -53 -70 -117
-78 -142 -10 -29 -20 -44 -29 -41 -8 2 -29 7 -46 11 l-33 8 0 -139 0 -139 155
0 c148 0 155 1 155 20 0 11 5 20 10 20 12 0 13 40 1 58 -7 11 -9 11 -13 0 -3
-8 -29 -20 -57 -28 -28 -7 -51 -17 -51 -22 0 -4 -5 -8 -11 -8 -5 0 -7 5 -4 10
3 6 1 10 -5 10 -6 0 -8 5 -5 10 3 6 19 10 36 10 32 0 40 16 12 23 -10 3 -2 5
17 6 31 1 33 3 18 15 -23 17 -25 58 -3 50 10 -4 15 0 15 11 0 14 -6 16 -29 12
-26 -5 -28 -4 -23 21 3 15 9 33 15 40 6 7 12 23 13 35 6 51 33 149 71 252 22
61 44 126 47 145 4 19 23 80 43 135 19 55 45 134 58 175 13 41 40 120 59 175
23 64 38 127 42 175 7 83 18 124 62 220 17 36 38 97 47 135 30 119 44 129 102
70 22 -23 39 -32 50 -28 12 5 14 3 8 -6 -10 -17 15 -33 32 -20 8 7 18 7 32 0
26 -14 34 -14 25 2 -6 8 -3 8 9 -2 13 -10 14 -17 5 -35 -6 -11 -7 -18 -4 -14
4 3 24 -5 43 -18 20 -13 44 -24 55 -24 10 0 36 -11 56 -25 20 -14 62 -30 94
-36 32 -6 58 -17 58 -23 0 -12 -63 -140 -79 -160 -7 -10 -24 -87 -38 -171 -3
-16 -9 -38 -14 -47 -7 -14 -14 -60 -22 -151 -1 -15 -7 -18 -32 -13 -16 2 -25
3 -20 0 17 -7 9 -96 -10 -110 -11 -8 -15 -20 -11 -32 4 -13 1 -22 -9 -26 -9
-3 -15 -18 -15 -39 0 -19 -7 -40 -15 -47 -9 -7 -14 -19 -11 -27 7 -18 -16 -74
-37 -92 -10 -7 -17 -25 -17 -40 -1 -25 -22 -63 -34 -62 -20 3 -26 0 -21 -8 3
-5 1 -12 -5 -16 -15 -9 -12 -45 4 -45 8 0 17 8 19 18 4 13 5 11 6 -5 0 -13 -5
-23 -11 -23 -10 0 -10 -2 0 -9 11 -7 11 -9 -2 -14 -9 -4 -16 -2 -16 3 0 6 -7
10 -15 10 -17 0 -20 -35 -4 -46 7 -4 -1 -14 -20 -26 -23 -15 -31 -27 -31 -49
0 -16 -4 -29 -8 -29 -5 0 -19 -20 -32 -45 -13 -25 -28 -45 -34 -45 -6 0 -5 -5
2 -12 19 -19 14 -38 -9 -38 -16 0 -20 -5 -16 -19 3 -11 -1 -22 -8 -25 -7 -2
-16 -18 -20 -35 -4 -17 -11 -31 -16 -31 -5 0 -9 -9 -9 -20 0 -18 7 -20 80 -20
l80 0 0 30 c0 16 16 74 36 127 20 54 47 130 61 168 14 39 36 99 50 135 54 140
89 237 139 385 38 115 52 147 124 280 102 190 193 385 210 450 7 28 46 117 86
198 46 94 79 175 89 223 11 45 22 74 30 74 28 0 145 -89 236 -180 82 -81 112
-104 199 -148 56 -29 112 -52 123 -52 12 0 33 10 47 23 14 12 39 29 55 37 41
20 119 102 132 136 6 16 18 56 28 89 9 33 26 83 36 110 24 63 25 118 2 136
-17 15 -76 16 -168 4 -46 -6 -58 -3 -125 32 -41 21 -87 50 -103 63 -15 13 -56
32 -90 42 -80 24 -101 35 -164 81 -49 36 -138 144 -175 211 -9 17 -17 48 -18
69 0 20 -4 37 -10 37 -5 0 -10 5 -10 11 0 5 5 7 10 4 13 -8 13 -2 -2 30 -7 17
-17 24 -28 20 -20 -6 -45 20 -54 58 -9 38 6 34 37 -10 34 -48 36 -28 2 21 -14
20 -25 41 -25 46 0 6 -19 45 -42 87 -91 170 -144 272 -185 356 -44 89 -68 121
-33 45 11 -24 19 -52 19 -63 0 -11 -3 -14 -6 -7 -2 6 -10 12 -17 12 -25 0 -40
26 -91 160 -21 57 -36 91 -69 160 -14 30 -35 81 -46 114 -17 51 -18 56 -3 45
17 -15 111 -207 132 -270 12 -38 61 -111 61 -92 0 7 -4 14 -9 17 -5 3 -25 45
-46 93 -52 122 -93 213 -110 245 -8 14 -15 31 -15 38 0 7 -10 33 -23 59 -13
25 -34 81 -47 123 -25 82 -42 101 -20 23 9 -32 10 -49 3 -56 -13 -13 -26 4
-29 38 -2 13 -10 37 -18 55 -9 17 -16 37 -16 43 0 20 28 26 34 8 4 -9 9 -13
12 -10 3 3 -1 27 -10 54 -8 26 -21 79 -28 117 -11 62 -17 72 -44 88 -29 17
-36 17 -85 4 -30 -8 -67 -19 -82 -25 -50 -19 -62 -13 -107 50 -64 91 -75 99
-139 98 -31 0 -74 -7 -96 -16z m1760 -2342 c114 -56 120 -58 125 -38 l6 21 15
-22 c9 -12 19 -19 24 -14 4 4 2 -3 -4 -15 -6 -13 -8 -23 -3 -23 14 0 53 46 45
53 -3 4 -1 7 5 7 17 0 15 -7 -13 -44 -14 -18 -25 -38 -25 -44 0 -5 -18 -25
-40 -42 -22 -17 -40 -37 -40 -44 0 -7 -12 -28 -26 -47 -15 -19 -24 -27 -21
-18 3 9 -1 26 -8 37 -8 10 -11 22 -8 26 12 12 -13 6 -26 -6 -11 -10 -13 -10
-7 0 4 6 2 12 -3 12 -6 0 -11 6 -11 14 0 8 -9 18 -20 21 -11 3 -20 11 -20 17
0 6 6 6 15 -2 8 -7 15 -8 15 -2 0 5 -7 15 -15 22 -8 7 -15 9 -15 6 0 -4 -13 2
-28 13 -22 15 -32 17 -40 9 -9 -9 -12 -7 -12 9 0 25 -15 39 -25 23 -14 -22
-23 2 -13 37 5 20 7 49 4 65 -5 25 -3 28 22 28 15 0 81 -27 147 -59z m-754
-15 c5 3 9 -7 8 -23 0 -15 -3 -22 -6 -15 -2 6 -9 12 -14 12 -6 0 -7 -4 -4 -10
3 -5 1 -10 -4 -10 -6 0 -11 -8 -10 -17 0 -10 3 -13 5 -7 3 7 14 10 24 7 12 -3
20 0 20 8 0 7 3 9 6 6 11 -11 -39 -55 -55 -49 -9 3 -13 2 -9 -3 4 -4 -4 -18
-19 -31 l-27 -23 33 5 32 5 -15 -29 c-9 -17 -23 -29 -32 -28 -23 2 -28 -18 -9
-37 11 -12 12 -18 3 -23 -6 -4 -14 -2 -16 4 -2 7 -8 12 -13 12 -5 0 -4 -9 3
-20 7 -11 20 -18 28 -15 9 3 7 -1 -4 -10 -11 -8 -24 -15 -29 -15 -4 0 -16 -8
-25 -17 -12 -12 -13 -18 -4 -21 7 -2 10 -8 6 -13 -10 -18 -22 -9 -26 21 -3 18
0 29 6 28 6 0 22 4 36 10 17 7 19 11 8 11 -9 1 -18 7 -21 14 -5 15 3 47 12 47
3 0 5 15 5 32 -1 38 12 79 28 90 9 5 9 10 0 21 -16 19 -4 29 19 16 24 -12 25
-1 2 18 -10 7 -13 13 -8 12 29 -4 39 1 27 13 -7 7 -12 15 -12 19 0 11 34 16
38 7 2 -5 8 -6 13 -2z"/>
<path d="M2443 2466 c-18 -33 -123 -134 -151 -147 -17 -7 -29 -16 -27 -19 5
-9 -60 -14 -155 -14 -59 0 -85 4 -122 24 -27 13 -48 27 -48 31 0 4 -8 10 -18
13 -10 3 -26 20 -36 37 -10 17 -20 28 -23 25 -3 -3 9 -30 27 -59 29 -49 39
-57 100 -81 54 -21 84 -26 154 -26 l86 0 61 48 c34 26 77 56 98 68 20 11 35
26 33 33 -1 7 4 18 11 25 8 6 17 21 20 34 6 25 2 29 -10 8z"/>
</g>
</svg>
